<svg xmlns="http://www.w3.org/2000/svg" width="38.643" height="27.7" viewBox="0 0 38.643 27.7">
  <g id="envelope" transform="translate(-1122.53 -3637)">
    <path id="Path_47" data-name="Path 47" d="M33.925,57.8H4.725A4.593,4.593,0,0,0,0,62.245v18.8A4.6,4.6,0,0,0,4.725,85.5H33.917a4.6,4.6,0,0,0,4.725-4.452V62.26A4.588,4.588,0,0,0,33.925,57.8Zm2.567,23.256a2.5,2.5,0,0,1-2.567,2.418H4.725a2.5,2.5,0,0,1-2.567-2.418V62.26a2.5,2.5,0,0,1,2.567-2.418H33.917a2.5,2.5,0,0,1,2.567,2.418l.008,18.8Z" transform="translate(1122.53 3579.2)" fill="#b7b7b7"/>
    <path id="Path_48" data-name="Path 48" d="M76.481,118.627l9.838-7.985A.955.955,0,0,0,86.4,109.2a1.214,1.214,0,0,0-1.59-.075L71.246,120.149,68.6,118.009c-.008-.008-.017-.015-.017-.023a1.631,1.631,0,0,0-.183-.143l-10.77-8.731a1.206,1.206,0,0,0-1.59.083.95.95,0,0,0,.092,1.439l9.955,8.053-9.913,8.407a.954.954,0,0,0-.05,1.439,1.21,1.21,0,0,0,.824.324,1.194,1.194,0,0,0,.766-.271l10.063-8.52,2.73,2.207a1.209,1.209,0,0,0,1.5-.008l2.8-2.275,10,8.6a1.212,1.212,0,0,0,1.59-.038.954.954,0,0,0-.042-1.439Z" transform="translate(1070.626 3531.994)" fill="#b7b7b7"/>
  </g>
</svg>
